<svg width="472.2" height="65.851" viewBox="-0.6752956800108141 -27.07526719408058 478.20033228506236 71.8509846709085" xmlns="http://www.w3.org/2000/svg"><g id="svgGroup" stroke-linecap="round" fill-rule="evenodd" font-size="9pt" stroke="#e5e7eb" stroke-width="0.25mm" fill="#E5E7EB" style="stroke:#e5e7eb;stroke-width:0.25mm;fill:#E5E7EB"><path d="M 4.875 45.526 L 4.8 46.051 A 1.523 1.523 0 0 0 4.874 46.547 Q 5.107 47.223 6.07 47.25 A 2.902 2.902 0 0 0 6.15 47.251 A 1.915 1.915 0 0 0 6.839 47.119 A 2.352 2.352 0 0 0 7.05 47.026 A 6.984 6.984 0 0 0 9.264 45.631 Q 11.026 44.053 12.726 41.004 A 37.015 37.015 0 0 0 13.725 39.076 A 4.242 4.242 0 0 1 12.616 38.619 A 4.747 4.747 0 0 1 12.563 38.588 Q 12 38.251 11.4 37.876 Q 10.65 39.301 9.75 40.876 A 61.528 61.528 0 0 1 8.537 42.903 A 74.351 74.351 0 0 1 7.725 44.176 A 0.06 0.06 0 0 1 7.688 44.232 Q 7.659 44.246 7.607 44.25 A 0.505 0.505 0 0 1 7.575 44.251 A 0.511 0.511 0 0 1 7.486 44.244 Q 7.439 44.235 7.404 44.217 A 0.173 0.173 0 0 1 7.313 44.101 A 0.456 0.456 0 0 1 7.304 44.059 Q 7.295 43.996 7.308 43.948 A 0.164 0.164 0 0 1 7.35 43.876 Q 8.175 42.601 9 40.988 A 86.382 86.382 0 0 0 9.844 39.291 A 111.494 111.494 0 0 0 10.725 37.426 A 15.669 15.669 0 0 1 7.953 34.665 Q 6.852 33.274 5.882 31.515 A 29.415 29.415 0 0 1 5.25 30.301 A 29.118 29.118 0 0 1 3.677 26.181 A 21.377 21.377 0 0 1 2.85 21.751 Q 2.775 21.001 2.738 20.326 Q 2.7 19.651 2.7 19.051 A 26.563 26.563 0 0 1 3.013 14.837 Q 3.633 10.991 5.475 8.401 A 11.705 11.705 0 0 1 7.049 6.62 Q 8.099 5.668 9.242 5.214 A 5.797 5.797 0 0 1 11.4 4.801 A 4.881 4.881 0 0 1 15.164 6.487 A 6.87 6.87 0 0 1 15.675 7.126 Q 17.55 9.526 17.55 14.026 A 46.088 46.088 0 0 1 16.228 24.385 Q 14.768 30.507 11.7 37.201 A 7.649 7.649 0 0 0 13.218 38.193 A 9.366 9.366 0 0 0 14.025 38.551 Q 15.525 35.251 16.95 30.976 A 72.168 72.168 0 0 0 18.749 24.635 Q 19.95 19.45 19.95 15.226 A 23.684 23.684 0 0 0 19.525 10.591 Q 18.591 5.912 15.6 3.076 A 8.267 8.267 0 0 0 14.018 1.862 A 5.736 5.736 0 0 0 11.1 1.051 A 6.584 6.584 0 0 0 7.313 2.293 Q 5.768 3.355 4.35 5.326 A 16.04 16.04 0 0 0 2.026 9.994 A 14.196 14.196 0 0 0 1.425 14.101 Q 1.425 15.826 2.025 17.401 Q 2.25 17.926 2.25 18.451 A 1.436 1.436 0 0 1 2.237 18.655 Q 2.203 18.894 2.077 18.989 A 0.325 0.325 0 0 1 1.875 19.051 A 0.648 0.648 0 0 1 1.452 18.885 Q 1.235 18.703 1.052 18.322 A 3.477 3.477 0 0 1 0.975 18.151 A 11.938 11.938 0 0 1 0.041 14.279 A 14.241 14.241 0 0 1 0 13.201 Q 0 9.751 1.5 6.751 A 13.904 13.904 0 0 1 4.18 3.019 A 12.904 12.904 0 0 1 5.513 1.876 Q 8.025 0.001 10.875 0.001 A 8.257 8.257 0 0 1 15.094 1.182 A 11.035 11.035 0 0 1 16.425 2.101 Q 22.35 6.601 22.35 17.401 A 36.243 36.243 0 0 1 22.244 20.139 A 40.458 40.458 0 0 1 22.2 20.663 Q 22.05 22.351 21.75 24.076 A 118.335 118.335 0 0 1 22.772 21.718 Q 23.41 20.291 24 19.088 Q 24.722 17.619 25.338 16.486 A 40.819 40.819 0 0 1 25.875 15.526 Q 31.35 6.451 34.95 6.451 A 2.484 2.484 0 0 1 36.834 7.325 Q 37.198 7.721 37.506 8.296 A 8.001 8.001 0 0 1 37.95 9.301 A 11.546 11.546 0 0 1 38.5 11.208 Q 38.898 13.146 38.924 15.828 A 39.046 39.046 0 0 1 38.925 16.201 Q 38.925 17.176 38.888 18.113 Q 38.85 19.051 38.775 20.101 A 38.33 38.33 0 0 1 38.635 21.298 Q 38.561 21.856 38.465 22.484 A 83.391 83.391 0 0 1 38.25 23.813 A 105.413 105.413 0 0 1 37.879 25.871 Q 37.613 27.273 37.275 28.876 Q 36.816 31.173 36.51 32.678 A 557.549 557.549 0 0 1 36.338 33.526 Q 36 35.176 35.925 35.551 A 74.456 74.456 0 0 1 38.345 30.854 A 90.118 90.118 0 0 1 40.05 27.938 Q 42.45 24.001 45.525 19.651 Q 53.475 8.701 59.475 5.851 Q 61.743 4.855 63.113 4.594 A 4.666 4.666 0 0 1 63.975 4.501 A 2.713 2.713 0 0 1 64.677 4.583 Q 65.578 4.825 65.74 5.776 A 2.685 2.685 0 0 1 65.775 6.226 Q 65.775 9.826 59.025 18.751 Q 56.475 22.126 54.3 25.651 Q 52.125 29.176 50.325 32.926 Q 48.392 36.857 47.317 40.18 A 36.513 36.513 0 0 0 46.988 41.251 A 30.772 30.772 0 0 0 46.254 44.335 Q 45.969 45.908 45.914 47.323 A 17.264 17.264 0 0 0 45.9 48.001 Q 45.9 49.719 46.446 50.401 A 1.161 1.161 0 0 0 47.4 50.851 A 2.768 2.768 0 0 0 48.527 50.589 Q 49.574 50.123 50.775 48.826 A 2.106 2.106 0 0 1 50.958 48.662 Q 51.173 48.492 51.361 48.459 A 0.514 0.514 0 0 1 51.45 48.451 Q 51.737 48.451 51.75 48.656 A 0.316 0.316 0 0 1 51.75 48.676 A 0.618 0.618 0 0 1 51.698 48.907 Q 51.57 49.222 51.121 49.68 A 6.623 6.623 0 0 1 51.075 49.726 Q 49.164 51.486 47.321 52.066 A 5.958 5.958 0 0 1 45.525 52.351 Q 42.828 52.351 42.752 48.383 A 12.188 12.188 0 0 1 42.75 48.151 Q 42.75 47.401 42.825 46.651 Q 42.9 45.901 43.05 45.076 A 26.213 26.213 0 0 1 43.906 41.82 Q 45.018 38.405 47.241 33.906 A 104.863 104.863 0 0 1 48 32.401 A 216.603 216.603 0 0 1 49.036 30.418 Q 49.5 29.539 50.019 28.572 A 406.229 406.229 0 0 1 51.113 26.551 Q 52.692 23.65 54.797 20.141 A 254.805 254.805 0 0 1 55.5 18.976 A 710.217 710.217 0 0 0 57.087 16.285 Q 59.994 11.325 60.844 9.641 A 14.945 14.945 0 0 0 60.975 9.376 Q 61.337 8.601 61.449 7.968 A 3.102 3.102 0 0 0 61.5 7.426 A 1.176 1.176 0 0 0 61.482 7.209 Q 61.41 6.826 61.05 6.826 A 2.017 2.017 0 0 0 60.243 7.051 Q 58.471 7.873 54.525 11.701 A 86.555 86.555 0 0 0 47.319 19.66 A 101.3 101.3 0 0 0 44.625 23.176 Q 41.85 26.851 39.938 30.226 Q 38.025 33.601 36.9 36.601 A 12.364 12.364 0 0 1 36.473 37.569 Q 35.536 39.451 34.5 39.451 A 0.62 0.62 0 0 1 33.907 39.075 Q 33.769 38.796 33.752 38.309 A 3.995 3.995 0 0 1 33.75 38.176 Q 33.75 38.074 33.768 37.937 A 3.546 3.546 0 0 1 33.788 37.801 A 5.108 5.108 0 0 1 33.821 37.621 Q 33.841 37.523 33.867 37.412 A 9.564 9.564 0 0 1 33.9 37.276 Q 34.876 32.337 35.391 28.41 A 84.762 84.762 0 0 0 35.663 26.101 A 122.391 122.391 0 0 0 35.92 23.316 Q 36.035 21.88 36.092 20.647 A 48.967 48.967 0 0 0 36.15 18.376 A 61.084 61.084 0 0 0 36.088 15.502 Q 35.778 8.952 33.924 8.444 A 1.216 1.216 0 0 0 33.6 8.401 A 2.368 2.368 0 0 0 32.223 8.98 Q 29.814 10.812 25.928 18.428 A 115.398 115.398 0 0 0 25.65 18.976 Q 23.775 22.726 22.125 26.663 Q 20.475 30.601 19.05 34.651 Q 18.3 36.751 17.025 39.151 A 7.387 7.387 0 0 0 17.289 39.155 Q 19.275 39.155 21.525 38.101 Q 23.141 37.388 23.943 36.375 A 3.602 3.602 0 0 0 24.6 35.101 A 0.676 0.676 0 0 1 24.692 35.023 Q 24.746 34.985 24.801 34.967 A 0.314 0.314 0 0 1 24.9 34.951 A 0.358 0.358 0 0 1 25.156 35.056 A 0.47 0.47 0 0 1 25.163 35.063 A 0.19 0.19 0 0 1 25.192 35.1 Q 25.251 35.2 25.125 35.326 A 4.246 4.246 0 0 1 24.1 36.968 A 5.839 5.839 0 0 1 23.288 37.651 A 10.575 10.575 0 0 1 20.679 38.976 A 12.21 12.21 0 0 1 20.138 39.151 A 12.64 12.64 0 0 1 17.88 39.613 A 10.797 10.797 0 0 1 16.725 39.676 Q 14.847 42.963 12.848 45.23 A 22.951 22.951 0 0 1 12.375 45.751 Q 9.9 48.526 7.875 48.901 A 2.604 2.604 0 0 1 7.558 48.96 A 2.035 2.035 0 0 1 7.313 48.976 L 6.75 48.976 A 4.231 4.231 0 0 1 5.64 48.843 Q 4.369 48.497 4.027 47.246 A 3.963 3.963 0 0 1 3.9 46.201 Q 3.9 44.851 4.575 44.851 Q 4.989 44.851 4.895 45.422 A 1.893 1.893 0 0 1 4.875 45.526 Z M 385.95 8.551 L 385.875 8.926 A 0.509 0.509 0 0 0 385.877 8.97 Q 385.891 9.132 386.022 9.004 A 0.55 0.55 0 0 0 386.025 9.001 L 387.15 8.326 L 387.3 8.326 Q 388.004 8.326 388.107 8.871 A 1.097 1.097 0 0 1 388.125 9.076 A 2.322 2.322 0 0 1 387.97 9.884 Q 387.768 10.431 387.3 11.026 Q 384.082 14.449 383.177 14.747 A 0.494 0.494 0 0 1 383.025 14.776 Q 382.8 14.776 382.8 14.476 A 1.717 1.717 0 0 1 382.864 14.069 Q 383.043 13.369 383.726 11.952 A 44.703 44.703 0 0 1 384.225 10.951 Q 384.757 9.887 384.818 9.177 A 2.079 2.079 0 0 0 384.825 9.001 A 2.248 2.248 0 0 0 384.529 7.816 Q 383.741 6.512 380.85 6.676 L 379.35 6.751 Q 376.875 6.826 374.625 7.688 Q 372.375 8.551 370.275 9.826 A 19.641 19.641 0 0 1 373.802 18.056 A 27.157 27.157 0 0 1 374.25 23.101 Q 374.25 24.826 374.025 26.551 A 19.06 19.06 0 0 1 376.585 28.332 Q 377.819 29.366 378.59 30.47 A 6.671 6.671 0 0 1 379.875 34.351 A 6.765 6.765 0 0 1 378.755 37.995 Q 377.485 40.013 374.775 41.926 Q 369.9 45.226 363.975 46.126 A 39.839 39.839 0 0 1 360.803 46.49 A 31.848 31.848 0 0 1 358.5 46.576 Q 353.475 46.576 350.4 44.851 A 7.7 7.7 0 0 1 348.991 43.778 Q 347.55 42.367 347.55 40.501 A 5.239 5.239 0 0 1 348.057 38.307 Q 348.405 37.546 348.992 36.777 A 11.296 11.296 0 0 1 349.575 36.076 Q 351.3 34.351 355.425 32.476 A 30.808 30.808 0 0 1 358.821 31.287 Q 360.556 30.799 362.121 30.624 A 15.312 15.312 0 0 1 363.825 30.526 A 10.628 10.628 0 0 1 365.652 30.674 Q 366.896 30.891 367.875 31.426 A 0.661 0.661 0 0 1 367.996 31.467 Q 368.175 31.552 368.175 31.726 A 0.187 0.187 0 0 1 368.064 31.904 Q 367.971 31.951 367.8 31.951 A 3.093 3.093 0 0 1 367.581 31.943 Q 367.355 31.927 367.2 31.876 Q 366.382 31.687 365.299 31.657 A 15.144 15.144 0 0 0 364.875 31.651 A 17.711 17.711 0 0 0 361.139 32.073 Q 359.057 32.523 356.775 33.451 Q 353.302 34.903 351.689 36.409 A 6.281 6.281 0 0 0 351.15 36.976 A 9.959 9.959 0 0 0 350.357 37.994 Q 349.58 39.151 349.508 40.148 A 2.803 2.803 0 0 0 349.5 40.351 Q 349.5 42.301 351.863 43.388 A 10.176 10.176 0 0 0 353.849 44.046 Q 355.728 44.476 358.275 44.476 A 35.581 35.581 0 0 0 360.364 44.412 A 40.294 40.294 0 0 0 361.088 44.363 Q 362.55 44.251 364.05 43.951 A 26.493 26.493 0 0 0 368.068 43.037 Q 370.151 42.377 371.807 41.394 A 13.876 13.876 0 0 0 373.425 40.276 A 10.149 10.149 0 0 0 375.194 38.513 A 6.681 6.681 0 0 0 376.65 34.351 A 6.895 6.895 0 0 0 375.139 30.063 A 10.317 10.317 0 0 0 373.725 28.576 A 24.846 24.846 0 0 1 372.759 32.096 A 20.645 20.645 0 0 1 371.963 34.013 Q 370.8 36.451 369.075 38.401 Q 365.25 42.676 359.625 43.126 Q 359.425 43.126 359.344 42.889 A 0.763 0.763 0 0 1 359.325 42.826 Q 359.325 42.626 359.562 42.544 A 0.763 0.763 0 0 1 359.625 42.526 Q 365.25 42.076 368.85 37.801 A 16.916 16.916 0 0 0 372.322 31.232 A 22.231 22.231 0 0 0 372.975 27.976 Q 372 27.151 370.725 26.401 A 40.847 40.847 0 0 1 368.722 25.269 Q 366.869 24.147 365.751 23.135 A 9.916 9.916 0 0 1 365.4 22.801 A 9.383 9.383 0 0 1 363.807 20.871 A 6.834 6.834 0 0 1 362.775 17.251 Q 362.775 14.021 365.924 11.058 A 19.829 19.829 0 0 1 368.1 9.301 A 12.374 12.374 0 0 0 363.772 6.316 A 12.038 12.038 0 0 0 359.25 5.476 Q 356.325 5.476 353.25 6.826 A 7.885 7.885 0 0 0 350.176 9.406 A 10.045 10.045 0 0 0 349.613 10.276 A 10.33 10.33 0 0 0 348.437 13.256 A 9.238 9.238 0 0 0 348.225 15.226 A 8.213 8.213 0 0 0 348.398 16.948 A 6.106 6.106 0 0 0 349.125 18.826 A 5.756 5.756 0 0 0 353.288 21.453 A 7.878 7.878 0 0 0 354.375 21.526 Q 357.6 21.526 359.175 19.126 A 0.676 0.676 0 0 1 359.267 19.048 Q 359.321 19.01 359.376 18.992 A 0.314 0.314 0 0 1 359.475 18.976 A 0.399 0.399 0 0 1 359.584 19.03 Q 359.7 19.114 359.7 19.276 Q 359.7 20.218 357.669 21.23 A 12.745 12.745 0 0 1 357.525 21.301 Q 355.725 22.051 354.3 22.051 A 7.905 7.905 0 0 1 351.818 21.681 A 6.221 6.221 0 0 1 348.525 19.126 A 6.746 6.746 0 0 1 347.485 15.766 A 8.157 8.157 0 0 1 347.475 15.376 A 9.943 9.943 0 0 1 348.34 11.368 A 12.478 12.478 0 0 1 349.013 10.051 A 9.906 9.906 0 0 1 350.777 7.808 A 8.281 8.281 0 0 1 353.025 6.301 A 17.334 17.334 0 0 1 357.455 4.978 A 15.343 15.343 0 0 1 359.775 4.801 A 14.214 14.214 0 0 1 364.388 5.52 A 12.003 12.003 0 0 1 369.225 8.626 Q 374.925 5.101 379.5 4.651 A 2.604 2.604 0 0 1 379.817 4.591 A 2.035 2.035 0 0 1 380.063 4.576 L 380.625 4.576 A 9.958 9.958 0 0 1 382.506 4.738 Q 385.539 5.324 385.95 8.026 A 0.25 0.25 0 0 1 386.018 8.155 Q 386.048 8.3 385.957 8.535 A 1.629 1.629 0 0 1 385.95 8.551 Z M 236.625 49.201 L 239.025 44.851 A 5.62 5.62 0 0 1 237.352 41.891 A 8.554 8.554 0 0 1 237.15 39.976 A 16.506 16.506 0 0 1 237.438 37.051 Q 238.007 33.91 239.7 29.776 Q 237.145 28.413 236.525 26.922 A 2.506 2.506 0 0 1 236.325 25.951 Q 236.325 23.317 242.392 23.252 A 29.015 29.015 0 0 1 242.7 23.251 Q 247.659 13.802 250.462 10.281 A 15.766 15.766 0 0 1 251.1 9.526 A 16.571 16.571 0 0 0 250.917 7.979 Q 250.737 6.922 250.425 6.076 L 249.675 6.226 Q 249.3 6.301 248.925 6.451 Q 247.875 6.751 246.75 6.976 L 244.5 7.426 Q 243.075 7.726 241.913 7.913 A 40.679 40.679 0 0 1 241.088 8.038 Q 240.684 8.095 240.331 8.134 A 19.436 19.436 0 0 1 239.925 8.176 A 4.27 4.27 0 0 0 239.565 8.19 A 3.548 3.548 0 0 0 239.363 8.213 A 3.715 3.715 0 0 1 239.02 8.245 A 4.474 4.474 0 0 1 238.8 8.251 A 7.643 7.643 0 0 1 237.389 8.132 Q 235.042 7.689 234.908 5.586 A 4.101 4.101 0 0 1 234.9 5.326 A 4.084 4.084 0 0 1 235.481 3.247 A 5.604 5.604 0 0 1 236.025 2.476 A 6.747 6.747 0 0 1 239.014 0.545 Q 240.631 0.001 242.775 0.001 A 11.834 11.834 0 0 1 245.932 0.393 A 7.642 7.642 0 0 1 250.95 4.576 A 119.398 119.398 0 0 1 255.664 3.943 A 99.683 99.683 0 0 1 258.338 3.676 A 84.067 84.067 0 0 1 262.107 3.433 A 66.66 66.66 0 0 1 264.825 3.376 A 42.077 42.077 0 0 1 269.688 3.638 Q 274.651 4.217 277.8 6.076 A 12.314 12.314 0 0 1 280.151 7.907 A 7.514 7.514 0 0 1 282.45 13.351 A 9.362 9.362 0 0 1 281.491 17.394 Q 280.876 18.69 279.867 19.986 A 18.688 18.688 0 0 1 279.15 20.851 A 24.48 24.48 0 0 1 274.056 25.158 A 32.527 32.527 0 0 1 269.625 27.526 Q 268.65 27.901 267.675 28.313 Q 266.7 28.726 265.65 29.101 Q 271.422 32.24 273.64 36.488 A 12.209 12.209 0 0 1 275.025 42.226 Q 275.025 43.276 274.875 44.363 A 18.18 18.18 0 0 1 274.462 46.435 A 19.92 19.92 0 0 1 274.425 46.576 Q 274.179 47.266 273.868 47.502 A 0.557 0.557 0 0 1 273.525 47.626 Q 273.107 47.626 273.142 47.173 A 1.117 1.117 0 0 1 273.15 47.101 L 273.225 46.576 Q 273.6 45.226 273.6 44.101 Q 273.6 36.451 261.375 30.301 Q 254.925 31.801 249.3 31.801 L 247.913 31.801 Q 247.275 31.801 246.675 31.726 Q 245.953 33.324 244.966 35.277 A 141.571 141.571 0 0 1 244.013 37.126 A 251.233 251.233 0 0 1 242.494 39.974 Q 241.449 41.907 240.225 44.101 Q 241.2 45.526 242.775 45.526 L 243.525 45.451 L 243.75 45.451 A 0.756 0.756 0 0 1 243.958 45.477 Q 244.191 45.543 244.253 45.781 A 0.773 0.773 0 0 1 244.275 45.976 A 0.442 0.442 0 0 1 244.248 46.138 Q 244.173 46.33 243.888 46.349 A 0.969 0.969 0 0 1 243.825 46.351 A 10.618 10.618 0 0 1 243.275 46.367 Q 240.961 46.376 239.55 45.301 L 237.225 49.501 Q 237.153 49.717 236.804 49.587 A 1.297 1.297 0 0 1 236.775 49.576 A 0.436 0.436 0 0 1 236.693 49.547 Q 236.499 49.454 236.625 49.201 Z M 302.025 30.301 L 300 30.376 A 5.136 5.136 0 0 1 299.442 30.294 Q 298.411 30.079 298.35 29.476 L 298.35 29.401 A 0.495 0.495 0 0 1 298.655 28.928 Q 298.881 28.818 299.272 28.803 A 3.34 3.34 0 0 1 299.4 28.801 L 302.7 28.801 A 6454.447 6454.447 0 0 1 303.49 27.078 Q 304.547 24.774 305.328 23.077 A 2158.533 2158.533 0 0 1 305.438 22.838 A 148.589 148.589 0 0 1 305.951 21.734 Q 306.675 20.194 307.125 19.351 A 62.472 62.472 0 0 1 308.898 16.146 Q 311.11 12.43 313.05 10.651 A 7.23 7.23 0 0 1 313.752 10.029 Q 314.699 9.301 315.525 9.301 Q 317.549 9.301 317.623 12.366 A 9.82 9.82 0 0 1 317.625 12.601 Q 317.625 14.124 316.854 15.857 A 11.787 11.787 0 0 1 316.8 15.976 A 22.919 22.919 0 0 1 314.658 19.416 Q 312.275 22.64 308.184 26.477 A 98.811 98.811 0 0 1 305.7 28.726 Q 307.2 28.726 308.4 28.763 Q 309.225 28.789 309.908 28.797 A 50.282 50.282 0 0 0 310.5 28.801 Q 311.4 28.801 312.038 28.763 Q 312.651 28.727 312.952 28.726 A 5.101 5.101 0 0 1 312.975 28.726 Q 313.447 28.883 313.589 29.113 A 0.398 0.398 0 0 1 313.65 29.326 A 0.563 0.563 0 0 1 313.413 29.773 Q 313.044 30.071 312.1 30.212 A 7.936 7.936 0 0 1 312 30.226 A 5.277 5.277 0 0 1 311.498 30.278 Q 310.222 30.369 306.311 30.427 A 527.341 527.341 0 0 1 304.425 30.451 Q 302.186 34.93 298.1 42.574 A 1329.182 1329.182 0 0 1 295.425 47.551 A 31.164 31.164 0 0 1 293.327 50.742 Q 291.466 53.204 289.425 54.676 Q 285.75 57.451 280.725 57.451 A 7.575 7.575 0 0 1 278.692 57.191 A 5.795 5.795 0 0 1 276.3 55.876 A 5.168 5.168 0 0 1 275.175 54.244 A 4.786 4.786 0 0 1 274.8 52.351 A 4.903 4.903 0 0 1 276.254 48.798 A 6.017 6.017 0 0 1 276.3 48.751 Q 276.525 48.451 276.75 48.451 A 0.432 0.432 0 0 1 276.869 48.466 Q 277.002 48.504 277.038 48.64 A 0.442 0.442 0 0 1 277.05 48.751 A 0.341 0.341 0 0 1 277.037 48.837 Q 276.996 48.992 276.825 49.276 A 3.492 3.492 0 0 0 275.878 51.074 A 5.124 5.124 0 0 0 275.775 52.126 Q 275.775 53.851 276.9 55.126 A 3.888 3.888 0 0 0 279.168 56.438 A 5.885 5.885 0 0 0 280.35 56.551 Q 283.8 56.551 287.25 53.776 A 21.093 21.093 0 0 0 289.831 51.369 A 24.297 24.297 0 0 0 290.513 50.588 A 32.423 32.423 0 0 0 292.391 48.101 A 39.402 39.402 0 0 0 293.475 46.426 Q 295.875 42.301 298.013 38.251 A 238.387 238.387 0 0 0 301.908 30.545 A 218.747 218.747 0 0 0 302.025 30.301 Z M 453.45 48.601 L 456 42.601 A 2.334 2.334 0 0 1 455.617 42.401 Q 455.423 42.274 455.302 42.123 A 0.891 0.891 0 0 1 455.1 41.551 A 0.473 0.473 0 0 1 455.143 41.343 Q 455.239 41.144 455.554 41.108 A 1.312 1.312 0 0 1 455.7 41.101 Q 455.966 41.101 456.114 41.16 A 0.465 0.465 0 0 1 456.15 41.176 L 456.413 41.251 A 2.943 2.943 0 0 0 456.552 41.287 Q 456.687 41.319 456.783 41.324 A 0.695 0.695 0 0 0 456.825 41.326 L 459.225 36.826 A 19.11 19.11 0 0 1 458.727 37.302 Q 457.905 38.066 456.303 39.447 A 268.33 268.33 0 0 1 455.25 40.351 Q 453.72 41.528 452.652 41.781 A 2.395 2.395 0 0 1 452.1 41.851 Q 450.584 41.851 450.401 40.113 A 4.882 4.882 0 0 1 450.375 39.601 A 5.628 5.628 0 0 1 450.662 37.878 Q 450.998 36.833 451.725 35.701 Q 454.036 32.235 456.628 30.424 A 11.789 11.789 0 0 1 458.55 29.326 Q 460.125 28.576 461.625 28.576 A 3.755 3.755 0 0 1 462.829 28.765 A 3.463 3.463 0 0 1 463.275 28.951 L 463.5 28.651 A 0.626 0.626 0 0 1 463.768 28.415 Q 463.997 28.301 464.376 28.28 A 3.214 3.214 0 0 1 464.55 28.276 A 2.736 2.736 0 0 1 465.111 28.329 Q 465.898 28.494 466.125 29.176 A 40.152 40.152 0 0 0 465.865 29.572 Q 465.469 30.182 464.819 31.214 A 305.413 305.413 0 0 0 464.663 31.463 Q 463.65 33.076 462.488 35.063 Q 461.325 37.051 460.35 38.851 A 208.487 208.487 0 0 0 459.896 39.694 Q 459.267 40.869 458.929 41.543 A 27.946 27.946 0 0 0 458.925 41.551 Q 461.253 41.615 464.082 40.565 A 22.4 22.4 0 0 0 465 40.201 Q 468.675 38.626 471.375 35.851 A 3.075 3.075 0 0 1 471.531 35.677 Q 471.799 35.401 471.975 35.401 Q 472.2 35.401 472.2 35.701 Q 472.2 36.076 471.975 36.301 Q 471 37.276 469.8 38.251 A 17.38 17.38 0 0 1 467.876 39.602 A 20.323 20.323 0 0 1 467.1 40.051 A 22.48 22.48 0 0 1 464.537 41.395 Q 462.399 42.336 460.5 42.526 A 16.382 16.382 0 0 1 463.522 44.665 A 11.497 11.497 0 0 1 466.5 48.826 A 10.733 10.733 0 0 1 467.152 51.949 A 12.569 12.569 0 0 1 467.175 52.726 Q 467.175 57.751 463.725 61.726 Q 460.275 65.851 455.625 65.851 A 4.321 4.321 0 0 1 452.268 64.308 A 6.454 6.454 0 0 1 451.725 63.601 A 8.995 8.995 0 0 1 450.431 59.706 A 11.232 11.232 0 0 1 450.375 58.576 A 11.594 11.594 0 0 1 450.448 57.246 A 8.54 8.54 0 0 1 450.675 56.026 A 18.836 18.836 0 0 1 450.851 55.449 Q 451.059 54.801 451.376 53.934 A 73.645 73.645 0 0 1 451.688 53.101 Q 452.4 51.226 453.45 48.601 Z M 81.9 38.851 L 82.8 37.951 Q 83.4 37.351 84.188 36.526 A 36.127 36.127 0 0 1 84.836 35.865 Q 85.131 35.572 85.466 35.25 A 73.738 73.738 0 0 1 86.175 34.576 A 20.975 20.975 0 0 1 87.516 33.52 Q 89.597 32.026 90.975 32.026 Q 91.934 32.026 92.27 33.27 A 4.844 4.844 0 0 1 92.4 33.976 L 92.775 37.651 A 5.392 5.392 0 0 0 92.959 38.362 Q 93.22 39.133 93.666 39.424 A 1.09 1.09 0 0 0 94.275 39.601 A 3.336 3.336 0 0 0 95.271 39.433 Q 96.15 39.157 97.22 38.427 A 13.564 13.564 0 0 0 97.575 38.176 A 95.229 95.229 0 0 0 98.658 37.297 A 83.216 83.216 0 0 0 99 37.013 A 11.087 11.087 0 0 0 99.893 36.185 A 9.599 9.599 0 0 0 100.2 35.851 A 1.879 1.879 0 0 1 100.4 35.643 Q 100.675 35.401 100.95 35.401 Q 101.175 35.401 101.175 35.701 A 0.622 0.622 0 0 1 101.154 35.854 Q 101.117 36 101.014 36.189 A 2.897 2.897 0 0 1 100.95 36.301 A 36.345 36.345 0 0 1 98.842 38.317 Q 95.258 41.457 92.805 41.476 A 3.852 3.852 0 0 1 92.775 41.476 A 1.648 1.648 0 0 1 91.426 40.778 Q 91.195 40.482 91.013 40.06 A 5.798 5.798 0 0 1 90.75 39.301 L 89.85 35.926 Q 89.325 34.726 88.425 34.726 Q 87.675 34.726 86.475 35.551 Q 85.05 36.676 83.325 38.926 A 104.444 104.444 0 0 1 82.742 39.734 A 117.311 117.311 0 0 1 82.538 40.013 Q 82.125 40.576 81.75 41.101 A 4.703 4.703 0 0 1 81.304 41.391 Q 80.757 41.701 80.325 41.701 A 0.872 0.872 0 0 1 79.491 41.185 Q 79.275 40.757 79.275 39.976 Q 79.275 39.226 79.5 38.476 Q 80.1 36.376 81.3 33.451 A 326.88 326.88 0 0 1 82.436 30.719 Q 83.026 29.319 83.695 27.759 A 581.216 581.216 0 0 1 84.15 26.701 A 190.315 190.315 0 0 1 85.678 23.296 Q 86.911 20.621 88.013 18.488 A 81.206 81.206 0 0 1 89.185 16.297 Q 89.725 15.326 90.229 14.495 A 35.689 35.689 0 0 1 91.2 12.976 Q 93.525 9.526 96.3 9.526 A 2.426 2.426 0 0 1 97.162 9.666 Q 98.232 10.072 98.318 11.642 A 5.19 5.19 0 0 1 98.325 11.926 Q 98.325 12.976 97.875 14.251 Q 95.775 20.926 85.35 29.851 Q 84.3 31.801 83.4 34.051 A 32.944 32.944 0 0 0 82.136 37.905 A 37.153 37.153 0 0 0 81.9 38.851 Z M 386.775 38.851 L 387.675 37.951 Q 388.275 37.351 389.063 36.526 A 36.127 36.127 0 0 1 389.711 35.865 Q 390.006 35.572 390.341 35.25 A 73.738 73.738 0 0 1 391.05 34.576 A 20.975 20.975 0 0 1 392.391 33.52 Q 394.472 32.026 395.85 32.026 Q 396.809 32.026 397.145 33.27 A 4.844 4.844 0 0 1 397.275 33.976 L 397.65 37.651 A 5.392 5.392 0 0 0 397.834 38.362 Q 398.095 39.133 398.541 39.424 A 1.09 1.09 0 0 0 399.15 39.601 A 3.336 3.336 0 0 0 400.146 39.433 Q 401.025 39.157 402.095 38.427 A 13.564 13.564 0 0 0 402.45 38.176 A 95.229 95.229 0 0 0 403.533 37.297 A 83.216 83.216 0 0 0 403.875 37.013 A 11.087 11.087 0 0 0 404.768 36.185 A 9.599 9.599 0 0 0 405.075 35.851 A 1.879 1.879 0 0 1 405.275 35.643 Q 405.55 35.401 405.825 35.401 Q 406.05 35.401 406.05 35.701 A 0.622 0.622 0 0 1 406.029 35.854 Q 405.992 36 405.889 36.189 A 2.897 2.897 0 0 1 405.825 36.301 A 36.345 36.345 0 0 1 403.717 38.317 Q 400.133 41.457 397.68 41.476 A 3.852 3.852 0 0 1 397.65 41.476 A 1.648 1.648 0 0 1 396.301 40.778 Q 396.07 40.482 395.888 40.06 A 5.798 5.798 0 0 1 395.625 39.301 L 394.725 35.926 Q 394.2 34.726 393.3 34.726 Q 392.55 34.726 391.35 35.551 Q 389.925 36.676 388.2 38.926 A 104.444 104.444 0 0 1 387.617 39.734 A 117.311 117.311 0 0 1 387.413 40.013 Q 387 40.576 386.625 41.101 A 4.703 4.703 0 0 1 386.179 41.391 Q 385.632 41.701 385.2 41.701 A 0.872 0.872 0 0 1 384.366 41.185 Q 384.15 40.757 384.15 39.976 Q 384.15 39.226 384.375 38.476 Q 384.975 36.376 386.175 33.451 A 326.88 326.88 0 0 1 387.311 30.719 Q 387.901 29.319 388.57 27.759 A 581.216 581.216 0 0 1 389.025 26.701 A 190.315 190.315 0 0 1 390.553 23.296 Q 391.786 20.621 392.888 18.488 A 81.206 81.206 0 0 1 394.06 16.297 Q 394.6 15.326 395.104 14.495 A 35.689 35.689 0 0 1 396.075 12.976 Q 398.4 9.526 401.175 9.526 A 2.426 2.426 0 0 1 402.037 9.666 Q 403.107 10.072 403.193 11.642 A 5.19 5.19 0 0 1 403.2 11.926 Q 403.2 12.976 402.75 14.251 Q 400.65 20.926 390.225 29.851 Q 389.175 31.801 388.275 34.051 A 32.944 32.944 0 0 0 387.011 37.905 A 37.153 37.153 0 0 0 386.775 38.851 Z M 127.5 41.101 L 127.65 39.601 L 127.875 36.976 Q 128.071 33.656 127.249 33.217 A 0.572 0.572 0 0 0 126.975 33.151 A 1.207 1.207 0 0 0 126.51 33.265 Q 125.678 33.623 124.2 35.101 A 14.179 14.179 0 0 0 123.734 35.654 Q 123.333 36.155 122.888 36.788 A 25.175 25.175 0 0 0 122.338 37.606 Q 122.013 38.107 121.668 38.685 A 46.041 46.041 0 0 0 121.35 39.226 Q 119.85 41.776 119.7 41.851 A 1.505 1.505 0 0 1 119.466 41.945 A 1.341 1.341 0 0 1 119.4 41.963 Q 119.25 42.001 119.1 42.001 A 0.709 0.709 0 0 1 118.789 41.937 Q 118.49 41.793 118.437 41.32 A 1.969 1.969 0 0 1 118.425 41.101 A 2.905 2.905 0 0 1 118.428 40.961 Q 118.441 40.71 118.5 40.651 L 120.75 35.476 A 101.632 101.632 0 0 0 121.413 33.887 Q 122.635 30.879 122.697 30.012 A 1.217 1.217 0 0 0 122.7 29.926 Q 122.884 29.681 123.767 29.236 A 18.149 18.149 0 0 1 124.2 29.026 Q 124.43 28.911 124.616 28.84 A 2.722 2.722 0 0 1 124.725 28.801 A 1.417 1.417 0 0 1 125.168 28.726 A 1.343 1.343 0 0 1 125.175 28.726 Q 125.641 28.726 125.694 29.256 A 1.461 1.461 0 0 1 125.7 29.401 L 124.2 33.976 Q 124.916 33.26 126.178 32.203 A 62.609 62.609 0 0 1 126.3 32.101 Q 127.05 31.576 127.95 31.576 A 2.452 2.452 0 0 1 129.076 31.82 Q 130.066 32.324 130.355 33.865 A 6.348 6.348 0 0 1 130.425 34.351 L 130.2 39.151 Q 131.37 37.366 134.508 33.107 A 575.613 575.613 0 0 1 135.975 31.126 A 3.608 3.608 0 0 1 136.485 30.557 Q 137.112 30.001 137.85 30.001 A 0.653 0.653 0 0 1 138.071 30.035 Q 138.375 30.144 138.375 30.601 L 138.3 31.201 A 36.349 36.349 0 0 0 137.667 33.452 Q 137.129 35.66 137.102 37.26 A 9.898 9.898 0 0 0 137.1 37.426 Q 137.1 40.344 139.087 40.423 A 2.823 2.823 0 0 0 139.2 40.426 Q 140.775 40.426 142.95 38.701 A 7.594 7.594 0 0 0 143.164 38.523 Q 143.484 38.246 143.991 37.767 A 53.418 53.418 0 0 0 144.113 37.651 A 30.559 30.559 0 0 0 144.528 37.248 Q 145.138 36.644 145.914 35.819 A 85.641 85.641 0 0 0 146.025 35.701 Q 146.268 35.458 146.461 35.412 A 0.381 0.381 0 0 1 146.55 35.401 A 0.432 0.432 0 0 1 146.669 35.416 Q 146.802 35.454 146.838 35.59 A 0.442 0.442 0 0 1 146.85 35.701 Q 146.912 35.824 146.771 36.099 A 2.168 2.168 0 0 1 146.7 36.226 A 32.486 32.486 0 0 1 144.419 38.553 Q 141.957 40.805 139.864 41.519 A 5.767 5.767 0 0 1 138 41.851 A 2.872 2.872 0 0 1 135.241 40.005 Q 134.449 38.306 134.537 35.045 A 26.56 26.56 0 0 1 134.55 34.651 A 9.248 9.248 0 0 0 134.386 34.819 Q 134.119 35.101 133.725 35.551 A 53.4 53.4 0 0 0 133.449 35.869 Q 133.014 36.375 132.452 37.048 A 28.85 28.85 0 0 0 132.45 37.051 L 129.675 41.326 A 5.074 5.074 0 0 1 129.354 41.644 Q 128.801 42.142 128.385 42.142 A 0.629 0.629 0 0 1 128.1 42.076 A 1.04 1.04 0 0 1 127.796 41.921 Q 127.445 41.653 127.5 41.101 Z M 153.075 41.101 L 153.225 39.601 L 153.45 36.976 Q 153.646 33.656 152.824 33.217 A 0.572 0.572 0 0 0 152.55 33.151 A 1.207 1.207 0 0 0 152.085 33.265 Q 151.253 33.623 149.775 35.101 A 14.179 14.179 0 0 0 149.309 35.654 Q 148.908 36.155 148.463 36.788 A 25.175 25.175 0 0 0 147.913 37.606 Q 147.588 38.107 147.243 38.685 A 46.041 46.041 0 0 0 146.925 39.226 Q 145.425 41.776 145.275 41.851 A 1.505 1.505 0 0 1 145.041 41.945 A 1.341 1.341 0 0 1 144.975 41.963 Q 144.825 42.001 144.675 42.001 A 0.709 0.709 0 0 1 144.364 41.937 Q 144.065 41.793 144.012 41.32 A 1.969 1.969 0 0 1 144 41.101 A 2.905 2.905 0 0 1 144.003 40.961 Q 144.016 40.71 144.075 40.651 L 146.325 35.476 A 101.632 101.632 0 0 0 146.988 33.887 Q 148.21 30.879 148.272 30.012 A 1.217 1.217 0 0 0 148.275 29.926 Q 148.459 29.681 149.342 29.236 A 18.149 18.149 0 0 1 149.775 29.026 Q 150.005 28.911 150.191 28.84 A 2.722 2.722 0 0 1 150.3 28.801 A 1.417 1.417 0 0 1 150.743 28.726 A 1.343 1.343 0 0 1 150.75 28.726 Q 151.216 28.726 151.269 29.256 A 1.461 1.461 0 0 1 151.275 29.401 L 149.775 33.976 Q 150.491 33.26 151.753 32.203 A 62.609 62.609 0 0 1 151.875 32.101 Q 152.625 31.576 153.525 31.576 A 2.452 2.452 0 0 1 154.651 31.82 Q 155.641 32.324 155.93 33.865 A 6.348 6.348 0 0 1 156 34.351 L 155.775 39.151 Q 156.945 37.366 160.083 33.107 A 575.613 575.613 0 0 1 161.55 31.126 A 3.608 3.608 0 0 1 162.06 30.557 Q 162.687 30.001 163.425 30.001 A 0.653 0.653 0 0 1 163.646 30.035 Q 163.95 30.144 163.95 30.601 L 163.875 31.201 A 36.349 36.349 0 0 0 163.242 33.452 Q 162.704 35.66 162.677 37.26 A 9.898 9.898 0 0 0 162.675 37.426 Q 162.675 40.344 164.662 40.423 A 2.823 2.823 0 0 0 164.775 40.426 Q 166.35 40.426 168.525 38.701 A 7.594 7.594 0 0 0 168.739 38.523 Q 169.059 38.246 169.566 37.767 A 53.418 53.418 0 0 0 169.688 37.651 A 30.559 30.559 0 0 0 170.103 37.248 Q 170.713 36.644 171.489 35.819 A 85.641 85.641 0 0 0 171.6 35.701 Q 171.843 35.458 172.036 35.412 A 0.381 0.381 0 0 1 172.125 35.401 A 0.432 0.432 0 0 1 172.244 35.416 Q 172.377 35.454 172.413 35.59 A 0.442 0.442 0 0 1 172.425 35.701 Q 172.487 35.824 172.346 36.099 A 2.168 2.168 0 0 1 172.275 36.226 A 32.486 32.486 0 0 1 169.994 38.553 Q 167.532 40.805 165.439 41.519 A 5.767 5.767 0 0 1 163.575 41.851 A 2.872 2.872 0 0 1 160.816 40.005 Q 160.024 38.306 160.112 35.045 A 26.56 26.56 0 0 1 160.125 34.651 A 9.248 9.248 0 0 0 159.961 34.819 Q 159.694 35.101 159.3 35.551 A 53.4 53.4 0 0 0 159.024 35.869 Q 158.589 36.375 158.027 37.048 A 28.85 28.85 0 0 0 158.025 37.051 L 155.25 41.326 A 5.074 5.074 0 0 1 154.929 41.644 Q 154.376 42.142 153.96 42.142 A 0.629 0.629 0 0 1 153.675 42.076 A 1.04 1.04 0 0 1 153.371 41.921 Q 153.02 41.653 153.075 41.101 Z M 190.05 39.601 A 4.882 4.882 0 0 0 190.076 40.113 Q 190.259 41.851 191.775 41.851 A 2.395 2.395 0 0 0 192.327 41.781 Q 193.395 41.528 194.925 40.351 A 20.372 20.372 0 0 0 195.05 40.24 Q 196.863 38.619 198.675 36.226 A 8.563 8.563 0 0 0 198.783 37.346 A 6.609 6.609 0 0 0 199.95 40.201 A 4.653 4.653 0 0 0 200.285 40.618 A 3.353 3.353 0 0 0 202.875 41.776 A 6.027 6.027 0 0 0 204.557 41.523 Q 207.712 40.608 211.65 36.376 A 2.154 2.154 0 0 0 211.74 36.21 Q 211.802 36.084 211.835 35.967 A 0.969 0.969 0 0 0 211.875 35.701 Q 211.875 35.401 211.65 35.401 Q 211.474 35.401 211.206 35.677 A 3.075 3.075 0 0 0 211.05 35.851 A 30.863 30.863 0 0 1 209.465 37.409 Q 207.426 39.265 205.742 39.979 A 5.06 5.06 0 0 1 203.775 40.426 A 3.683 3.683 0 0 1 203.392 40.406 Q 201.78 40.238 201.236 38.595 A 5.456 5.456 0 0 1 201 37.426 Q 201.075 35.926 201.563 34.051 A 27.423 27.423 0 0 1 201.67 33.65 Q 202.145 31.931 202.95 29.851 A 118.093 118.093 0 0 0 204.201 28.74 A 101.993 101.993 0 0 0 207.413 25.726 A 47.655 47.655 0 0 0 208.172 24.964 A 42.233 42.233 0 0 0 211.125 21.601 A 39.729 39.729 0 0 0 212.233 20.208 Q 214.544 17.16 215.408 14.653 A 8.621 8.621 0 0 0 215.925 11.851 Q 215.925 9.601 213.75 9.601 A 4.413 4.413 0 0 0 212.44 9.801 A 5.306 5.306 0 0 0 211.125 10.426 A 7.99 7.99 0 0 0 209.768 11.553 Q 207.618 13.729 205.125 18.601 A 83.922 83.922 0 0 0 203.424 22.159 A 101.86 101.86 0 0 0 200.775 28.651 Q 198.675 28.426 195.45 31.201 Q 192.9 33.301 191.4 35.701 Q 190.673 36.833 190.337 37.878 A 5.628 5.628 0 0 0 190.05 39.601 Z M 417.75 39.601 A 4.882 4.882 0 0 0 417.776 40.113 Q 417.959 41.851 419.475 41.851 A 2.395 2.395 0 0 0 420.027 41.781 Q 421.095 41.528 422.625 40.351 A 20.372 20.372 0 0 0 422.75 40.24 Q 424.563 38.619 426.375 36.226 A 8.563 8.563 0 0 0 426.483 37.346 A 6.609 6.609 0 0 0 427.65 40.201 A 4.653 4.653 0 0 0 427.985 40.618 A 3.353 3.353 0 0 0 430.575 41.776 A 6.027 6.027 0 0 0 432.257 41.523 Q 435.412 40.608 439.35 36.376 A 2.154 2.154 0 0 0 439.44 36.21 Q 439.502 36.084 439.535 35.967 A 0.969 0.969 0 0 0 439.575 35.701 Q 439.575 35.401 439.35 35.401 Q 439.174 35.401 438.906 35.677 A 3.075 3.075 0 0 0 438.75 35.851 A 30.863 30.863 0 0 1 437.165 37.409 Q 435.126 39.265 433.442 39.979 A 5.06 5.06 0 0 1 431.475 40.426 A 3.683 3.683 0 0 1 431.092 40.406 Q 429.48 40.238 428.936 38.595 A 5.456 5.456 0 0 1 428.7 37.426 Q 428.775 35.926 429.263 34.051 A 27.423 27.423 0 0 1 429.37 33.65 Q 429.845 31.931 430.65 29.851 A 118.093 118.093 0 0 0 431.901 28.74 A 101.993 101.993 0 0 0 435.113 25.726 A 47.655 47.655 0 0 0 435.872 24.964 A 42.233 42.233 0 0 0 438.825 21.601 A 39.729 39.729 0 0 0 439.933 20.208 Q 442.244 17.16 443.108 14.653 A 8.621 8.621 0 0 0 443.625 11.851 Q 443.625 9.601 441.45 9.601 A 4.413 4.413 0 0 0 440.14 9.801 A 5.306 5.306 0 0 0 438.825 10.426 A 7.99 7.99 0 0 0 437.468 11.553 Q 435.318 13.729 432.825 18.601 A 83.922 83.922 0 0 0 431.124 22.159 A 101.86 101.86 0 0 0 428.475 28.651 Q 426.375 28.426 423.15 31.201 Q 420.6 33.301 419.1 35.701 Q 418.373 36.833 418.037 37.878 A 5.628 5.628 0 0 0 417.75 39.601 Z M 64.65 31.576 L 63.075 34.426 Q 62.464 35.464 62.152 36.353 A 7.014 7.014 0 0 0 62.025 36.751 A 9.595 9.595 0 0 0 61.848 37.467 Q 61.779 37.806 61.749 38.107 A 4.435 4.435 0 0 0 61.725 38.551 A 5.93 5.93 0 0 0 61.752 39.139 Q 61.874 40.351 62.55 40.351 A 2.626 2.626 0 0 0 63.733 40.029 Q 65.191 39.287 67.093 36.838 A 28.648 28.648 0 0 0 67.275 36.601 A 31.509 31.509 0 0 0 69.68 32.804 A 25.212 25.212 0 0 0 71.025 29.851 A 1.3 1.3 0 0 1 71.591 29.389 Q 72.036 29.189 72.731 29.177 A 5.212 5.212 0 0 1 72.825 29.176 Q 73.575 29.176 73.575 29.551 Q 73.575 29.701 73.425 29.851 A 43.186 43.186 0 0 0 72.181 32.55 Q 71.083 35.188 70.813 37.09 A 8.287 8.287 0 0 0 70.725 38.251 A 4.233 4.233 0 0 0 70.803 39.099 Q 71.07 40.401 72.263 40.555 A 2.632 2.632 0 0 0 72.6 40.576 A 4.868 4.868 0 0 0 74.476 40.153 Q 76.861 39.151 80.025 35.776 A 2.996 2.996 0 0 1 80.228 35.589 Q 80.436 35.416 80.607 35.357 A 0.512 0.512 0 0 1 80.775 35.326 A 0.187 0.187 0 0 1 80.954 35.437 Q 81 35.53 81 35.701 Q 81 36.063 80.72 36.285 A 0.92 0.92 0 0 1 80.7 36.301 A 33.076 33.076 0 0 1 78.369 38.576 Q 74.383 42.068 71.4 41.776 A 2.934 2.934 0 0 1 69.952 41.129 A 3.943 3.943 0 0 1 69.525 40.726 A 3.46 3.46 0 0 1 68.737 39.283 Q 68.586 38.747 68.557 38.106 A 6.829 6.829 0 0 1 68.55 37.801 A 6.728 6.728 0 0 1 68.657 36.631 A 8.077 8.077 0 0 1 68.775 36.076 Q 65.473 39.965 63.607 40.982 A 4.727 4.727 0 0 1 63.525 41.026 Q 62.475 41.551 61.575 41.551 Q 59.4 41.551 59.4 39.076 A 7.208 7.208 0 0 1 59.608 37.463 Q 59.993 35.805 61.09 33.536 A 40.84 40.84 0 0 1 62.025 31.726 Q 62.368 31.098 63.319 30.948 A 4.229 4.229 0 0 1 63.975 30.901 A 1.794 1.794 0 0 1 64.22 30.916 Q 64.822 30.999 64.662 31.539 A 1.119 1.119 0 0 1 64.65 31.576 Z M 263.175 27.901 A 38.254 38.254 0 0 0 265.6 26.961 A 34.297 34.297 0 0 0 266.025 26.776 A 64.509 64.509 0 0 0 267.947 25.885 A 55.766 55.766 0 0 0 268.575 25.576 A 27.002 27.002 0 0 0 272.746 22.986 A 20.001 20.001 0 0 0 276.45 19.351 A 15.331 15.331 0 0 0 278.03 16.997 Q 278.805 15.55 279.078 14.131 A 8.102 8.102 0 0 0 279.225 12.601 Q 279.225 8.551 275.4 6.451 Q 272.557 4.768 268.186 4.387 A 30.983 30.983 0 0 0 265.5 4.276 Q 262.5 4.276 258.938 4.688 A 100.334 100.334 0 0 0 254.324 5.336 A 120.104 120.104 0 0 0 251.4 5.851 A 8.013 8.013 0 0 1 252.06 8.531 A 9.158 9.158 0 0 1 252.075 8.776 Q 253.05 8.358 253.895 8.328 A 3.667 3.667 0 0 1 254.025 8.326 A 4.996 4.996 0 0 1 254.54 8.35 Q 255.06 8.404 255.325 8.58 A 0.567 0.567 0 0 1 255.6 9.076 Q 255.6 9.35 255.287 9.686 A 2.451 2.451 0 0 1 255.225 9.751 Q 254.813 10.163 254.329 10.753 A 23.682 23.682 0 0 0 253.875 11.326 A 802.344 802.344 0 0 0 253.176 12.236 Q 252.818 12.703 252.42 13.223 A 1398.87 1398.87 0 0 0 252.15 13.576 A 29.74 29.74 0 0 1 251.731 16.982 A 35.313 35.313 0 0 1 251.4 18.601 A 48.14 48.14 0 0 1 250.289 22.623 A 55.01 55.01 0 0 1 249.825 24.001 A 68.101 68.101 0 0 1 256.183 25.412 Q 260.011 26.466 263.175 27.901 Z M 99.3 39.601 A 4.882 4.882 0 0 0 99.326 40.113 Q 99.509 41.851 101.025 41.851 A 2.395 2.395 0 0 0 101.577 41.781 Q 102.645 41.528 104.175 40.351 A 20.372 20.372 0 0 0 104.3 40.24 Q 106.113 38.619 107.925 36.226 A 8.563 8.563 0 0 0 108.033 37.346 A 6.609 6.609 0 0 0 109.2 40.201 A 4.653 4.653 0 0 0 109.535 40.618 A 3.353 3.353 0 0 0 112.125 41.776 A 6.027 6.027 0 0 0 113.807 41.523 Q 116.962 40.608 120.9 36.376 A 2.154 2.154 0 0 0 120.99 36.21 Q 121.052 36.084 121.085 35.967 A 0.969 0.969 0 0 0 121.125 35.701 Q 121.125 35.401 120.9 35.401 Q 120.724 35.401 120.456 35.677 A 3.075 3.075 0 0 0 120.3 35.851 A 30.863 30.863 0 0 1 118.715 37.409 Q 116.676 39.265 114.992 39.979 A 5.06 5.06 0 0 1 113.025 40.426 A 3.889 3.889 0 0 1 112.604 40.404 Q 110.769 40.204 110.365 38.187 A 6.57 6.57 0 0 1 110.25 36.901 A 9.362 9.362 0 0 1 110.304 35.911 Q 110.554 33.559 111.975 30.901 Q 112.05 30.826 112.163 30.751 A 0.537 0.537 0 0 1 112.233 30.712 Q 112.353 30.656 112.575 30.601 Q 112.784 30.571 112.91 30.493 A 0.378 0.378 0 0 0 113.1 30.151 A 1.061 1.061 0 0 0 112.958 29.607 Q 112.742 29.237 112.2 28.988 A 5.896 5.896 0 0 0 111.964 28.886 Q 111.613 28.743 111.286 28.666 A 3.208 3.208 0 0 0 110.55 28.576 Q 109.05 28.576 107.475 29.326 A 11.789 11.789 0 0 0 105.553 30.424 Q 102.961 32.235 100.65 35.701 Q 99.923 36.833 99.587 37.878 A 5.628 5.628 0 0 0 99.3 39.601 Z M 170.25 39.601 A 4.882 4.882 0 0 0 170.276 40.113 Q 170.459 41.851 171.975 41.851 A 2.395 2.395 0 0 0 172.527 41.781 Q 173.595 41.528 175.125 40.351 A 20.372 20.372 0 0 0 175.25 40.24 Q 177.063 38.619 178.875 36.226 A 8.563 8.563 0 0 0 178.983 37.346 A 6.609 6.609 0 0 0 180.15 40.201 A 4.653 4.653 0 0 0 180.485 40.618 A 3.353 3.353 0 0 0 183.075 41.776 A 6.027 6.027 0 0 0 184.757 41.523 Q 187.912 40.608 191.85 36.376 A 2.154 2.154 0 0 0 191.94 36.21 Q 192.002 36.084 192.035 35.967 A 0.969 0.969 0 0 0 192.075 35.701 Q 192.075 35.401 191.85 35.401 Q 191.674 35.401 191.406 35.677 A 3.075 3.075 0 0 0 191.25 35.851 A 30.863 30.863 0 0 1 189.665 37.409 Q 187.626 39.265 185.942 39.979 A 5.06 5.06 0 0 1 183.975 40.426 A 3.889 3.889 0 0 1 183.554 40.404 Q 181.719 40.204 181.315 38.187 A 6.57 6.57 0 0 1 181.2 36.901 A 9.362 9.362 0 0 1 181.254 35.911 Q 181.504 33.559 182.925 30.901 Q 183 30.826 183.113 30.751 A 0.537 0.537 0 0 1 183.183 30.712 Q 183.303 30.656 183.525 30.601 Q 183.734 30.571 183.86 30.493 A 0.378 0.378 0 0 0 184.05 30.151 A 1.061 1.061 0 0 0 183.908 29.607 Q 183.692 29.237 183.15 28.988 A 5.896 5.896 0 0 0 182.914 28.886 Q 182.563 28.743 182.236 28.666 A 3.208 3.208 0 0 0 181.5 28.576 Q 180 28.576 178.425 29.326 A 11.789 11.789 0 0 0 176.503 30.424 Q 173.911 32.235 171.6 35.701 Q 170.873 36.833 170.537 37.878 A 5.628 5.628 0 0 0 170.25 39.601 Z M 278.625 39.601 A 4.882 4.882 0 0 0 278.651 40.113 Q 278.834 41.851 280.35 41.851 A 2.395 2.395 0 0 0 280.902 41.781 Q 281.97 41.528 283.5 40.351 A 20.372 20.372 0 0 0 283.625 40.24 Q 285.438 38.619 287.25 36.226 A 8.563 8.563 0 0 0 287.358 37.346 A 6.609 6.609 0 0 0 288.525 40.201 A 4.653 4.653 0 0 0 288.86 40.618 A 3.353 3.353 0 0 0 291.45 41.776 A 6.027 6.027 0 0 0 293.132 41.523 Q 296.287 40.608 300.225 36.376 A 2.154 2.154 0 0 0 300.315 36.21 Q 300.377 36.084 300.41 35.967 A 0.969 0.969 0 0 0 300.45 35.701 Q 300.45 35.401 300.225 35.401 Q 300.049 35.401 299.781 35.677 A 3.075 3.075 0 0 0 299.625 35.851 A 30.863 30.863 0 0 1 298.04 37.409 Q 296.001 39.265 294.317 39.979 A 5.06 5.06 0 0 1 292.35 40.426 A 3.889 3.889 0 0 1 291.929 40.404 Q 290.094 40.204 289.69 38.187 A 6.57 6.57 0 0 1 289.575 36.901 A 9.362 9.362 0 0 1 289.629 35.911 Q 289.879 33.559 291.3 30.901 Q 291.375 30.826 291.488 30.751 A 0.537 0.537 0 0 1 291.558 30.712 Q 291.678 30.656 291.9 30.601 Q 292.109 30.571 292.235 30.493 A 0.378 0.378 0 0 0 292.425 30.151 A 1.061 1.061 0 0 0 292.283 29.607 Q 292.067 29.237 291.525 28.988 A 5.896 5.896 0 0 0 291.289 28.886 Q 290.938 28.743 290.611 28.666 A 3.208 3.208 0 0 0 289.875 28.576 Q 288.375 28.576 286.8 29.326 A 11.789 11.789 0 0 0 284.878 30.424 Q 282.286 32.235 279.975 35.701 Q 279.248 36.833 278.912 37.878 A 5.628 5.628 0 0 0 278.625 39.601 Z M 11.1 36.751 A 62.952 62.952 0 0 0 15.198 24.357 A 51.228 51.228 0 0 0 16.35 14.326 Q 16.35 9.976 14.775 7.651 A 5.937 5.937 0 0 0 13.712 6.459 A 4.065 4.065 0 0 0 11.025 5.476 A 4.681 4.681 0 0 0 7.958 6.643 Q 7.032 7.416 6.225 8.701 Q 3.9 12.376 3.9 18.451 Q 3.9 19.201 3.938 19.913 Q 3.975 20.626 4.05 21.376 Q 4.425 25.501 6.15 29.551 A 23.958 23.958 0 0 0 8.048 33.166 Q 9.322 35.138 10.89 36.563 A 14.82 14.82 0 0 0 11.1 36.751 Z M 317.55 29.101 L 317.475 29.476 L 315.6 32.701 Q 314.475 34.801 314.4 35.926 A 7.294 7.294 0 0 0 314.303 36.56 A 8.23 8.23 0 0 0 314.288 36.713 A 9.084 9.084 0 0 0 314.253 37.287 A 7.823 7.823 0 0 0 314.25 37.501 Q 314.25 40.576 316.425 40.576 Q 318.854 40.576 322.265 37.479 A 32.063 32.063 0 0 0 323.925 35.851 A 3.288 3.288 0 0 1 324.115 35.646 Q 324.441 35.326 324.675 35.326 Q 324.887 35.396 324.9 35.666 A 0.748 0.748 0 0 1 324.9 35.701 A 0.622 0.622 0 0 1 324.879 35.854 Q 324.842 36 324.739 36.189 A 2.897 2.897 0 0 1 324.675 36.301 A 31.925 31.925 0 0 1 322.278 38.633 Q 318.651 41.78 315.8 41.78 A 5.095 5.095 0 0 1 315.6 41.776 A 4.485 4.485 0 0 1 313.807 41.411 Q 311.357 40.295 311.7 35.776 Q 311.766 33.539 313.852 30.205 A 30.387 30.387 0 0 1 314.475 29.251 Q 314.818 28.623 315.769 28.473 A 4.229 4.229 0 0 1 316.425 28.426 A 2.804 2.804 0 0 1 316.808 28.449 Q 317.233 28.508 317.414 28.713 A 0.562 0.562 0 0 1 317.55 29.101 Z M 412.5 29.101 L 412.425 29.476 L 410.55 32.701 Q 409.425 34.801 409.35 35.926 A 7.294 7.294 0 0 0 409.253 36.56 A 8.23 8.23 0 0 0 409.238 36.713 A 9.084 9.084 0 0 0 409.203 37.287 A 7.823 7.823 0 0 0 409.2 37.501 Q 409.2 40.576 411.375 40.576 Q 413.804 40.576 417.215 37.479 A 32.063 32.063 0 0 0 418.875 35.851 A 3.288 3.288 0 0 1 419.065 35.646 Q 419.391 35.326 419.625 35.326 Q 419.837 35.396 419.85 35.666 A 0.748 0.748 0 0 1 419.85 35.701 A 0.622 0.622 0 0 1 419.829 35.854 Q 419.792 36 419.689 36.189 A 2.897 2.897 0 0 1 419.625 36.301 A 31.925 31.925 0 0 1 417.228 38.633 Q 413.601 41.78 410.75 41.78 A 5.095 5.095 0 0 1 410.55 41.776 A 4.485 4.485 0 0 1 408.757 41.411 Q 406.307 40.295 406.65 35.776 Q 406.716 33.539 408.802 30.205 A 30.387 30.387 0 0 1 409.425 29.251 Q 409.768 28.623 410.719 28.473 A 4.229 4.229 0 0 1 411.375 28.426 A 2.804 2.804 0 0 1 411.758 28.449 Q 412.183 28.508 412.364 28.713 A 0.562 0.562 0 0 1 412.5 29.101 Z M 445.125 29.101 L 445.05 29.476 L 443.175 32.701 Q 442.05 34.801 441.975 35.926 A 7.294 7.294 0 0 0 441.878 36.56 A 8.23 8.23 0 0 0 441.863 36.713 A 9.084 9.084 0 0 0 441.828 37.287 A 7.823 7.823 0 0 0 441.825 37.501 Q 441.825 40.576 444 40.576 Q 446.429 40.576 449.84 37.479 A 32.063 32.063 0 0 0 451.5 35.851 A 3.288 3.288 0 0 1 451.69 35.646 Q 452.016 35.326 452.25 35.326 Q 452.462 35.396 452.475 35.666 A 0.748 0.748 0 0 1 452.475 35.701 A 0.622 0.622 0 0 1 452.454 35.854 Q 452.417 36 452.314 36.189 A 2.897 2.897 0 0 1 452.25 36.301 A 31.925 31.925 0 0 1 449.853 38.633 Q 446.226 41.78 443.375 41.78 A 5.095 5.095 0 0 1 443.175 41.776 A 4.485 4.485 0 0 1 441.382 41.411 Q 438.932 40.295 439.275 35.776 Q 439.341 33.539 441.427 30.205 A 30.387 30.387 0 0 1 442.05 29.251 Q 442.393 28.623 443.344 28.473 A 4.229 4.229 0 0 1 444 28.426 A 2.804 2.804 0 0 1 444.383 28.449 Q 444.808 28.508 444.989 28.713 A 0.562 0.562 0 0 1 445.125 29.101 Z M 455.55 63.826 Q 458.025 63.826 460.238 62.026 A 13.397 13.397 0 0 0 463.384 58.294 A 15.808 15.808 0 0 0 463.838 57.451 A 12.822 12.822 0 0 0 465.168 52.933 A 12.191 12.191 0 0 0 465.225 51.751 Q 465.225 51.301 465.188 50.851 A 8.291 8.291 0 0 0 465.141 50.419 A 6.46 6.46 0 0 0 465.075 50.026 Q 464.625 47.551 462.375 45.451 Q 460.275 43.351 458.7 43.351 Q 458.475 43.351 455.85 48.001 A 90.617 90.617 0 0 0 454.66 50.284 Q 453.057 53.476 452.55 55.276 A 18.929 18.929 0 0 0 452.089 57.224 Q 451.915 58.197 451.883 59.075 A 10.823 10.823 0 0 0 451.875 59.476 A 7.505 7.505 0 0 0 452.036 61.104 Q 452.548 63.4 454.696 63.759 A 5.177 5.177 0 0 0 455.55 63.826 Z M 214.5 11.926 L 214.5 11.551 Q 214.5 10.684 213.944 10.652 A 0.758 0.758 0 0 0 213.9 10.651 Q 212.667 10.651 211.384 12.525 A 12.639 12.639 0 0 0 210.825 13.426 Q 208.8 16.951 207 20.701 Q 205.2 24.451 203.55 28.351 Q 207.375 24.676 210.3 20.401 A 49.887 49.887 0 0 0 211.969 17.846 Q 213.51 15.307 214.135 13.413 A 8.887 8.887 0 0 0 214.5 11.926 Z M 442.2 11.926 L 442.2 11.551 Q 442.2 10.684 441.644 10.652 A 0.758 0.758 0 0 0 441.6 10.651 Q 440.367 10.651 439.084 12.525 A 12.639 12.639 0 0 0 438.525 13.426 Q 436.5 16.951 434.7 20.701 Q 432.9 24.451 431.25 28.351 Q 435.075 24.676 438 20.401 A 49.887 49.887 0 0 0 439.669 17.846 Q 441.21 15.307 441.835 13.413 A 8.887 8.887 0 0 0 442.2 11.926 Z M 85.95 28.351 Q 87.45 26.851 88.913 25.201 Q 90.375 23.551 91.8 21.676 Q 94.901 17.448 96.148 14.478 A 16.04 16.04 0 0 0 96.3 14.101 A 18.646 18.646 0 0 0 96.556 13.391 Q 96.9 12.362 96.9 11.851 A 2.584 2.584 0 0 0 96.869 11.428 Q 96.744 10.677 96.12 10.652 A 1.089 1.089 0 0 0 96.075 10.651 A 1.566 1.566 0 0 0 95.264 10.908 Q 94.389 11.441 93.365 13.073 A 17.565 17.565 0 0 0 93.15 13.426 Q 91.125 16.951 89.325 20.701 Q 87.525 24.451 85.95 28.351 Z M 390.825 28.351 Q 392.325 26.851 393.788 25.201 Q 395.25 23.551 396.675 21.676 Q 399.776 17.448 401.023 14.478 A 16.04 16.04 0 0 0 401.175 14.101 A 18.646 18.646 0 0 0 401.431 13.391 Q 401.775 12.362 401.775 11.851 A 2.584 2.584 0 0 0 401.744 11.428 Q 401.619 10.677 400.995 10.652 A 1.089 1.089 0 0 0 400.95 10.651 A 1.566 1.566 0 0 0 400.139 10.908 Q 399.264 11.441 398.24 13.073 A 17.565 17.565 0 0 0 398.025 13.426 Q 396 16.951 394.2 20.701 Q 392.4 24.451 390.825 28.351 Z M 305.475 28.126 A 58.09 58.09 0 0 0 310.151 23.243 Q 313.588 19.176 315.375 15.226 A 13.9 13.9 0 0 0 315.84 14.1 Q 316.246 12.97 316.273 12.123 A 3.752 3.752 0 0 0 316.275 12.001 Q 316.275 11.467 316.117 11.249 A 0.343 0.343 0 0 0 315.825 11.101 A 0.875 0.875 0 0 0 315.352 11.286 Q 314.464 11.895 312.865 14.513 A 44.313 44.313 0 0 0 312.75 14.701 Q 311.1 17.701 309.263 21.038 Q 307.425 24.376 305.475 28.126 Z M 373.275 26.101 L 373.275 24.076 A 26.788 26.788 0 0 0 372.607 17.94 A 19.581 19.581 0 0 0 369.225 10.576 Q 365.1 13.726 365.1 17.401 A 5.917 5.917 0 0 0 366.445 21.155 A 7.798 7.798 0 0 0 366.825 21.601 A 14.057 14.057 0 0 0 368.402 23.054 Q 369.26 23.739 370.325 24.415 A 30.23 30.23 0 0 0 371.775 25.276 L 373.275 26.101 Z M 248.325 4.951 L 249.825 4.726 A 7.489 7.489 0 0 0 244.387 0.941 A 12.187 12.187 0 0 0 242.175 0.751 A 10.975 10.975 0 0 0 240.16 0.923 Q 237.811 1.362 236.625 2.926 A 2.139 2.139 0 0 0 236.22 3.595 A 1.952 1.952 0 0 0 236.1 4.276 A 1.643 1.643 0 0 0 237.086 5.856 Q 237.969 6.292 239.643 6.242 A 13.062 13.062 0 0 0 240 6.226 L 243.15 5.776 A 125.791 125.791 0 0 0 244.261 5.612 Q 246.019 5.344 248.325 4.951 Z M 239.775 43.351 A 283.218 283.218 0 0 0 241.557 40.023 A 220.328 220.328 0 0 0 243.15 36.938 Q 244.551 34.172 245.559 31.897 A 75.427 75.427 0 0 0 245.7 31.576 Q 244.725 31.426 243.825 31.238 Q 242.925 31.051 242.1 30.751 A 56.898 56.898 0 0 0 240.821 33.629 Q 239.175 37.651 239.175 39.901 Q 239.175 41.776 239.775 43.351 Z M 453.675 39.601 A 1.674 1.674 0 0 0 454.211 39.502 Q 454.712 39.331 455.351 38.867 A 9.674 9.674 0 0 0 455.85 38.476 Q 457.537 37.009 460.084 34.466 A 170.486 170.486 0 0 0 460.2 34.351 A 2.391 2.391 0 0 0 460.402 34.116 Q 460.718 33.704 461.155 32.888 A 20.833 20.833 0 0 0 461.175 32.851 A 305.37 305.37 0 0 1 461.499 32.246 Q 461.946 31.412 462.549 30.298 A 958.391 958.391 0 0 1 462.75 29.926 Q 461.45 29.861 459.868 30.472 A 11.645 11.645 0 0 0 459.375 30.676 Q 457.5 31.501 455.925 32.813 Q 454.35 34.126 453.6 35.626 A 8.298 8.298 0 0 0 453.131 36.622 Q 452.775 37.538 452.775 38.326 A 2.675 2.675 0 0 0 452.81 38.775 Q 452.947 39.577 453.635 39.6 A 1.228 1.228 0 0 0 453.675 39.601 Z M 247.2 30.601 Q 252.6 30.826 258.9 29.176 Q 254.4 27.076 249.15 25.801 A 37.461 37.461 0 0 1 248.525 27.53 A 42.739 42.739 0 0 1 248.288 28.126 A 48.604 48.604 0 0 1 247.493 29.968 A 55.118 55.118 0 0 1 247.2 30.601 Z M 193.35 39.601 A 1.674 1.674 0 0 0 193.886 39.502 Q 194.387 39.331 195.026 38.867 A 9.674 9.674 0 0 0 195.525 38.476 Q 197.214 37.043 198.1 35.644 A 6.908 6.908 0 0 0 198.75 34.351 A 106.972 106.972 0 0 1 199.171 33.086 Q 200.021 30.591 200.325 30.226 Q 198.3 30.076 196.275 31.801 A 9.592 9.592 0 0 0 193.885 34.487 A 11.914 11.914 0 0 0 193.275 35.626 A 8.298 8.298 0 0 0 192.806 36.622 Q 192.45 37.538 192.45 38.326 A 2.675 2.675 0 0 0 192.485 38.775 Q 192.622 39.577 193.31 39.6 A 1.228 1.228 0 0 0 193.35 39.601 Z M 421.05 39.601 A 1.674 1.674 0 0 0 421.586 39.502 Q 422.087 39.331 422.726 38.867 A 9.674 9.674 0 0 0 423.225 38.476 Q 424.914 37.043 425.8 35.644 A 6.908 6.908 0 0 0 426.45 34.351 A 106.972 106.972 0 0 1 426.871 33.086 Q 427.721 30.591 428.025 30.226 Q 426 30.076 423.975 31.801 A 9.592 9.592 0 0 0 421.585 34.487 A 11.914 11.914 0 0 0 420.975 35.626 A 8.298 8.298 0 0 0 420.506 36.622 Q 420.15 37.538 420.15 38.326 A 2.675 2.675 0 0 0 420.185 38.775 Q 420.322 39.577 421.01 39.6 A 1.228 1.228 0 0 0 421.05 39.601 Z M 102.6 39.601 A 1.674 1.674 0 0 0 103.136 39.502 Q 103.637 39.331 104.276 38.867 A 9.674 9.674 0 0 0 104.775 38.476 A 20.086 20.086 0 0 0 105.882 37.435 A 14.879 14.879 0 0 0 106.8 36.413 A 7.889 7.889 0 0 0 107.55 35.327 A 6.208 6.208 0 0 0 108 34.351 Q 108.15 33.076 108.488 32.063 A 21.012 21.012 0 0 1 108.879 30.983 A 16.429 16.429 0 0 1 109.2 30.226 A 5.471 5.471 0 0 0 109.095 30.225 Q 106.117 30.225 103.801 33.485 A 16.839 16.839 0 0 0 102.525 35.626 A 8.298 8.298 0 0 0 102.056 36.622 Q 101.7 37.538 101.7 38.326 A 2.675 2.675 0 0 0 101.735 38.775 Q 101.872 39.577 102.56 39.6 A 1.228 1.228 0 0 0 102.6 39.601 Z M 173.55 39.601 A 1.674 1.674 0 0 0 174.086 39.502 Q 174.587 39.331 175.226 38.867 A 9.674 9.674 0 0 0 175.725 38.476 A 20.086 20.086 0 0 0 176.832 37.435 A 14.879 14.879 0 0 0 177.75 36.413 A 7.889 7.889 0 0 0 178.5 35.327 A 6.208 6.208 0 0 0 178.95 34.351 Q 179.1 33.076 179.438 32.063 A 21.012 21.012 0 0 1 179.829 30.983 A 16.429 16.429 0 0 1 180.15 30.226 A 5.471 5.471 0 0 0 180.045 30.225 Q 177.067 30.225 174.751 33.485 A 16.839 16.839 0 0 0 173.475 35.626 A 8.298 8.298 0 0 0 173.006 36.622 Q 172.65 37.538 172.65 38.326 A 2.675 2.675 0 0 0 172.685 38.775 Q 172.822 39.577 173.51 39.6 A 1.228 1.228 0 0 0 173.55 39.601 Z M 281.925 39.601 A 1.674 1.674 0 0 0 282.461 39.502 Q 282.962 39.331 283.601 38.867 A 9.674 9.674 0 0 0 284.1 38.476 A 20.086 20.086 0 0 0 285.207 37.435 A 14.879 14.879 0 0 0 286.125 36.413 A 7.889 7.889 0 0 0 286.875 35.327 A 6.208 6.208 0 0 0 287.325 34.351 Q 287.475 33.076 287.813 32.063 A 21.012 21.012 0 0 1 288.204 30.983 A 16.429 16.429 0 0 1 288.525 30.226 A 5.471 5.471 0 0 0 288.42 30.225 Q 285.442 30.225 283.126 33.485 A 16.839 16.839 0 0 0 281.85 35.626 A 8.298 8.298 0 0 0 281.381 36.622 Q 281.025 37.538 281.025 38.326 A 2.675 2.675 0 0 0 281.06 38.775 Q 281.197 39.577 281.885 39.6 A 1.228 1.228 0 0 0 281.925 39.601 Z M 248.85 23.851 A 57.726 57.726 0 0 0 249.921 20.269 A 51.614 51.614 0 0 0 250.125 19.463 A 49.872 49.872 0 0 0 250.741 16.613 A 42.301 42.301 0 0 0 250.95 15.376 Q 249.675 17.251 248.438 19.276 A 265.624 265.624 0 0 0 246.085 23.204 A 290.409 290.409 0 0 0 245.925 23.476 Q 246.6 23.551 247.35 23.626 Q 248.1 23.701 248.85 23.851 Z M 245.4 25.051 L 245.025 24.976 Q 244.35 26.176 243.75 27.376 A 98.523 98.523 0 0 0 242.892 29.134 A 87.625 87.625 0 0 0 242.625 29.701 A 24.946 24.946 0 0 0 245.446 30.466 A 22.173 22.173 0 0 0 246.15 30.601 Q 246.75 29.326 247.275 28.051 A 31.125 31.125 0 0 0 247.978 26.18 A 27.094 27.094 0 0 0 248.175 25.576 Q 247.425 25.426 246.713 25.276 Q 246 25.126 245.4 25.051 Z M 319.695 22.722 A 1.597 1.597 0 0 0 320.625 23.026 A 3.049 3.049 0 0 0 321.202 22.975 Q 322.348 22.754 322.632 21.578 A 3.751 3.751 0 0 0 322.725 20.701 A 2.131 2.131 0 0 0 322.693 20.316 Q 322.538 19.474 321.651 19.267 A 2.886 2.886 0 0 0 321 19.201 A 1.952 1.952 0 0 0 320.32 19.32 A 2.139 2.139 0 0 0 319.65 19.726 A 2.563 2.563 0 0 0 319.413 19.921 A 1.721 1.721 0 0 0 318.825 21.226 A 1.567 1.567 0 0 0 319.045 22.026 A 2.152 2.152 0 0 0 319.388 22.463 A 2.278 2.278 0 0 0 319.695 22.722 Z M 414.645 22.722 A 1.597 1.597 0 0 0 415.575 23.026 A 3.049 3.049 0 0 0 416.152 22.975 Q 417.298 22.754 417.582 21.578 A 3.751 3.751 0 0 0 417.675 20.701 A 2.131 2.131 0 0 0 417.643 20.316 Q 417.488 19.474 416.601 19.267 A 2.886 2.886 0 0 0 415.95 19.201 A 1.952 1.952 0 0 0 415.27 19.32 A 2.139 2.139 0 0 0 414.6 19.726 A 2.563 2.563 0 0 0 414.363 19.921 A 1.721 1.721 0 0 0 413.775 21.226 A 1.567 1.567 0 0 0 413.995 22.026 A 2.152 2.152 0 0 0 414.338 22.463 A 2.278 2.278 0 0 0 414.645 22.722 Z M 447.27 22.722 A 1.597 1.597 0 0 0 448.2 23.026 A 3.049 3.049 0 0 0 448.777 22.975 Q 449.923 22.754 450.207 21.578 A 3.751 3.751 0 0 0 450.3 20.701 A 2.131 2.131 0 0 0 450.268 20.316 Q 450.113 19.474 449.226 19.267 A 2.886 2.886 0 0 0 448.575 19.201 A 1.952 1.952 0 0 0 447.895 19.32 A 2.139 2.139 0 0 0 447.225 19.726 A 2.563 2.563 0 0 0 446.988 19.921 A 1.721 1.721 0 0 0 446.4 21.226 A 1.567 1.567 0 0 0 446.62 22.026 A 2.152 2.152 0 0 0 446.963 22.463 A 2.278 2.278 0 0 0 447.27 22.722 Z M 240.3 28.426 Q 240.675 27.526 241.088 26.626 A 757.604 757.604 0 0 1 241.728 25.234 A 855.922 855.922 0 0 1 241.95 24.751 A 9.971 9.971 0 0 0 240.9 24.826 Q 238.8 25.101 238.8 26.326 Q 238.8 27.301 240.3 28.426 Z" vector-effect="non-scaling-stroke"/></g></svg>